<?xml version="1.0" standalone="no"?><!DOCTYPE svg PUBLIC "-//W3C//DTD SVG 1.1//EN" "http://www.w3.org/Graphics/SVG/1.1/DTD/svg11.dtd"><svg t="1612339427772" class="icon" viewBox="0 0 1024 1024" version="1.1" xmlns="http://www.w3.org/2000/svg" p-id="13596" xmlns:xlink="http://www.w3.org/1999/xlink" width="50" height="50"><defs><style type="text/css"></style></defs><path d="M668.38 852.94c20.3-1.66 67.88-5.5 87.12-39.14 16.12-28.2 9.94-72.18-18.4-130.68-45.58-94.12-52.22-170.34-49.76-217.7 2.7-52 16.42-81.46 17-82.7a10.038 10.038 0 0 1 12.16-5.22c4.78 1.58 7.66 6.46 6.7 11.4-3.5 18.18 15.44 41.12 69.92 84.6 46.02 36.72 62.92 83.64 68.14 102.5l73.82-1.14 26.52-64.46c-34.94-66.56-50.52-179.1-53.18-199.88l-68.5-76.38c-3.6-4-3.38-10.14 0.5-13.86l46-44.34c-47.98-18.92-101.74 20.28-102.32 20.72a10.038 10.038 0 0 1-8.32 1.68c-100.76-24.54-191.76-12.48-270.44 35.8-157.84 96.84-219.18 310.7-227.5 342.3l69.14 113.1a10 10 0 0 1-3.3 13.76s-0.02 0-0.02 0.02c-0.46 0.94-13.818 27.536-43.312 58.952h63.388a10 10 0 1 1 0 20h-83.886l-0.01 0.008c-30.8 27.54-73.62 55.44-130.48 70.96H664.6c1.14-0.1 2.38-0.2 3.78-0.3z" fill="#CC7B5A" p-id="13597"></path><path d="M961.6 510.4l-26.52 64.46-73.82 1.14c-1.6-5.74-4.26-14.06-8.5-23.9l58.66-0.9 26.52-64.46c-34.94-66.56-50.52-179.1-53.18-199.88l-68.5-76.38c-3.6-4-3.38-10.14 0.5-13.86l25.36-24.44c14.18-2.38 29.52-2.08 44.3 3.76l-46 44.34a9.97 9.97 0 0 0-0.5 13.86l68.5 76.38c2.66 20.78 18.24 133.32 53.18 199.88zM852.76 552.1l-15.16 0.24c-3.98-14.4-14.8-45.2-40.2-75.3 29.38 24.78 46.12 53.56 55.36 75.06z" fill="#FFFFFF" opacity=".2" p-id="13598"></path><path d="M839.92 234.14l13.52 15.08c-36.72 1.94-68.9 25.4-69.34 25.74a10.038 10.038 0 0 1-8.32 1.68c-100.76-24.54-191.76-12.48-270.44 35.8-119.18 73.12-183.34 212.94-211.2 290.66l-16.3-26.66c8.32-31.6 69.66-245.46 227.5-342.3 78.68-48.28 169.68-60.34 270.44-35.8 2.88 0.7 5.94 0.08 8.32-1.68 0.58-0.44 54.34-39.64 102.32-20.72l-46 44.34a9.97 9.97 0 0 0-0.5 13.86zM886.42 254.24l-15.28 14.72-17.7-19.74c10.84-0.58 22.06 0.72 32.98 5.02z" fill="#23130D" opacity=".2" p-id="13599"></path><path d="M981.4 504.96c-37.54-67.66-53.36-198.64-53.5-199.96a10.008 10.008 0 0 0-2.5-5.5l-64.16-71.52L910.4 180.6a9.994 9.994 0 0 0 3-8.24 9.988 9.988 0 0 0-4.64-7.44c-54.44-34.1-116.46 2.18-132.64 12.94-104.4-24.44-199-11.24-281.24 39.22-92.62 56.84-152.28 151.4-186.02 220.72-36.4 74.82-50.9 135.44-51.5 137.98-0.6 2.56-0.16 5.26 1.22 7.5l71.34 116.7c0.62 1 1.38 1.86 2.24 2.52a9.986 9.986 0 0 0 11.5 0.82c0-0.02 0.02-0.02 0.02-0.02a10 10 0 0 0 3.3-13.76l-69.14-113.1c8.32-31.6 69.66-245.46 227.5-342.3 78.68-48.28 169.68-60.34 270.44-35.8 2.88 0.7 5.94 0.08 8.32-1.68 0.58-0.44 54.34-39.64 102.32-20.72l-46 44.34a9.97 9.97 0 0 0-0.5 13.86l68.5 76.38c2.66 20.78 18.24 133.32 53.18 199.88l-26.52 64.46-73.82 1.14c-5.22-18.86-22.12-65.78-68.14-102.5-54.48-43.48-73.42-66.42-69.92-84.6 0.96-4.94-1.92-9.82-6.7-11.4-4.78-1.56-10 0.68-12.16 5.22-0.58 1.24-14.3 30.7-17 82.7-2.46 47.36 4.18 123.58 49.76 217.7 28.34 58.5 34.52 102.48 18.4 130.68-19.24 33.64-66.82 37.48-87.12 39.14-1.4 0.1-2.64 0.2-3.78 0.3H107.26c-5.52 0-10 4.48-10 10 0 5.54 4.48 10 10 10H665c0.32 0 0.62 0 0.94-0.04 1.18-0.1 2.54-0.22 4.04-0.34 23.46-1.9 78.4-6.34 102.88-49.14 19.6-34.28 13.62-84.52-17.76-149.32-43.44-89.7-50-161.92-47.86-206.7 0.86-17.7 3.1-32.62 5.6-44.46 12.26 19.16 35.44 40.06 67.8 65.9 51.68 41.24 62.84 98.22 62.94 98.78 0.86 4.76 5.02 8.2 9.84 8.2h0.14l88.42-1.38c4-0.06 7.58-2.48 9.1-6.18l30.82-74.94c1.16-2.8 0.98-6-0.5-8.66z" fill="#23130D" p-id="13600"></path><path d="M373.736 772.272a10 10 0 0 0-10-10h-159.768a10 10 0 1 0 0 20h159.768a10 10 0 0 0 10-10zM166.858 772.272a10 10 0 0 0-10-10H59.124a10 10 0 1 0 0 20h97.734a10 10 0 0 0 10-10zM183.44 691.3h91.94c5.52 0 10-4.48 10-10s-4.48-10-10-10H183.44c-5.52 0-10 4.48-10 10s4.48 10 10 10zM238.64 590.32c0-5.52-4.48-10-10-10H89.4c-5.52 0-10 4.48-10 10s4.48 10 10 10h139.24c5.52 0 10-4.48 10-10zM247.78 489.34H72.84c-5.54 0-10 4.48-10 10s4.46 10 10 10h174.94c5.52 0 10-4.48 10-10s-4.48-10-10-10zM300.54 408.36c0-5.52-4.48-10-10-10H144.16c-5.52 0-10 4.48-10 10s4.48 10 10 10h146.38c5.52 0 10-4.48 10-10zM99.54 418.36h2.24c5.52 0 10-4.48 10-10 0-4.02-2.38-7.5-5.82-9.08a9.76 9.76 0 0 0-4.18-0.92H51.34c-5.52 0-10 4.48-10 10s4.48 10 10 10h48.2zM352.32 317.38c0-5.52-4.48-10-10-10H144.16c-2.76 0-5.26 1.12-7.08 2.94-1.8 1.8-2.92 4.3-2.92 7.06 0 0.34 0.02 0.66 0.06 0.98a9.992 9.992 0 0 0 9.94 9.02h198.16c5.52 0 10-4.48 10-10zM107.26 236.42h322.52c5.52 0 10-4.48 10-10 0-5.54-4.48-10-10-10H107.26c-5.52 0-10 4.46-10 10 0 5.52 4.48 10 10 10z" fill="#F9C139" p-id="13601"></path></svg>